<svg xmlns="http://www.w3.org/2000/svg" xmlns:xlink="http://www.w3.org/1999/xlink" version="1.1" x="0px" y="0px" viewBox="0 0 512 640" enable-background="new 0 0 512 512" xml:space="preserve"><g><polygon points="92.1,354.3 75.7,354.3 75.7,378.9 51.2,378.9 51.2,395.3 75.7,395.3 75.7,419.9 92.1,419.9 92.1,395.3    116.7,395.3 116.7,378.9 92.1,378.9  "/><path d="M483,143.7c-16.9-16.9-39.3-26.4-63.1-26.9V83.9h16.4c13.6,0,24.6-11,24.6-24.6V26.6c0-13.6-11-24.6-24.6-24.6H256   c-13.6,0-24.6,11-24.6,24.6v32.8c0,13.6,11,24.6,24.6,24.6h16.4v32.9c-23.9,0.5-46.2,10-63.1,26.9c-6.5,6.5-12,14-16.3,22.2H51.2   c-13.6,0-24.6,11-24.6,24.6v32.8c0,13.6,11,24.6,24.6,24.6v16.4H43c-22.6,0-41,18.4-41,41V469c0,22.6,18.4,41,41,41h467V208.8   C510,184.2,500.4,161.1,483,143.7z M256,67.5c-4.5,0-8.2-3.7-8.2-8.2V26.6c0-4.5,3.7-8.2,8.2-8.2h180.3c4.5,0,8.2,3.7,8.2,8.2v32.8   c0,4.5-3.7,8.2-8.2,8.2H256z M403.5,83.9v32.8H288.8V83.9H403.5z M43,223.2v-32.8c0-4.5,3.7-8.2,8.2-8.2H215c4.5,0,8.2,3.7,8.2,8.2   v32.8c0,4.5-3.7,8.2-8.2,8.2H51.2C46.6,231.4,43,227.7,43,223.2z M67.5,247.8h131.1v16.4H67.5V247.8z M18.4,337.9h131.1v98.3H18.4   V337.9z M43,493.6c-13.6,0-24.6-11-24.6-24.6v-16.4h147.5V321.5H18.4v-16.4c0-13.6,11-24.6,24.6-24.6h180.3   c13.6,0,24.6,11,24.6,24.6V469c0,13.6-11,24.6-24.6,24.6H43z M255.8,493.6c5.2-6.9,8.4-15.3,8.4-24.6V305.2c0-22.6-18.4-41-41-41   H215v-16.4c13.6,0,24.6-11,24.6-24.6v-32.8c0-13.6-11-24.6-24.6-24.6h-3c18.2-24.5,42.1-32.8,62.4-32.8h143.5   c20.2,0,39.2,7.9,53.6,22.2s22.2,33.3,22.2,53.6v14.4H346.1v213h147.5v57.4H255.8z M493.6,239.6v180.3H362.5V239.6H493.6z"/><rect x="387.1" y="272.4" width="81.9" height="16.4"/><rect x="387.1" y="321.5" width="81.9" height="16.4"/><rect x="419.9" y="370.7" width="16.4" height="16.4"/><rect x="452.6" y="370.7" width="16.4" height="16.4"/><rect x="387.1" y="370.7" width="16.4" height="16.4"/></g><text x="0" y="527" fill="#000000" font-size="5px" font-weight="bold" font-family="'Helvetica Neue', Helvetica, Arial-Unicode, Arial, Sans-serif">Created by Icon Fair</text><text x="0" y="532" fill="#000000" font-size="5px" font-weight="bold" font-family="'Helvetica Neue', Helvetica, Arial-Unicode, Arial, Sans-serif">from the Noun Project</text></svg>