<svg xmlns="http://www.w3.org/2000/svg" xmlns:xlink="http://www.w3.org/1999/xlink" version="1.1" x="0px" y="0px" viewBox="0 0 24 24" enable-background="new 0 0 24 24" xml:space="preserve"><path d="M12,12.458c-3.361,0-5.872-3.477-5.872-6.586C6.128,2.634,8.762,0,12,0s5.872,2.634,5.872,5.872  C17.872,8.981,15.361,12.458,12,12.458z M12,0.96c-2.708,0-4.912,2.204-4.912,4.912c0,2.602,2.146,5.626,4.912,5.626  s4.912-3.024,4.912-5.626C16.912,3.164,14.708,0.96,12,0.96z"></path><path d="M18.899,24H5.101c-1.314,0-2.383-1.069-2.383-2.383v-2.624c0-3.83,2.416-7.32,6.012-8.684  c0.248-0.094,0.525,0.031,0.619,0.279c0.094,0.248-0.031,0.525-0.279,0.619c-3.226,1.223-5.393,4.352-5.393,7.786v2.624  c0,0.785,0.638,1.423,1.423,1.423h13.797c0.785,0,1.423-0.638,1.423-1.423v-2.624c0-3.435-2.168-6.564-5.395-7.787  c-0.248-0.094-0.373-0.371-0.279-0.619c0.094-0.248,0.371-0.373,0.619-0.279c3.597,1.363,6.015,4.853,6.015,8.685v2.624  C21.282,22.931,20.213,24,18.899,24z"></path></svg>